<svg width="22" height="22" viewBox="0 0 22 22" fill="none" xmlns="http://www.w3.org/2000/svg">
<path d="M5.04915 10.2712C5.35113 9.33721 5.8486 8.4799 6.505 7.75334C6.616 7.63048 6.79014 7.58669 6.94605 7.64244L8.51471 8.20333C8.94 8.35531 9.40796 8.13375 9.55994 7.70846C9.57489 7.66664 9.5864 7.62368 9.59436 7.58006L9.89321 5.93966C9.92292 5.77656 10.0482 5.64755 10.2103 5.61304C10.6848 5.51205 11.1712 5.46069 11.6641 5.46069C12.1566 5.46069 12.6428 5.51199 13.1169 5.61285C13.279 5.64734 13.4043 5.77627 13.4341 5.93931L13.7338 7.57999C13.8148 8.02429 14.2406 8.31878 14.6849 8.23775C14.7286 8.22978 14.7716 8.21827 14.8133 8.20335L16.3821 7.64244C16.538 7.58669 16.7121 7.63048 16.8231 7.75334C17.4795 8.4799 17.977 9.33721 18.279 10.2712C18.3299 10.4287 18.2808 10.6015 18.1546 10.7087L16.8831 11.7881C16.5389 12.0805 16.4967 12.5965 16.7891 12.9408C16.8178 12.9746 16.8493 13.0061 16.8831 13.0348L18.1546 14.1143C18.2808 14.2215 18.3299 14.3942 18.279 14.5518C17.977 15.4858 17.4795 16.3431 16.8231 17.0696C16.7121 17.1925 16.538 17.2363 16.3821 17.1805L14.8134 16.6196C14.3881 16.4677 13.9202 16.6892 13.7682 17.1145C13.7532 17.1563 13.7417 17.1993 13.7337 17.2431L13.4341 18.8837C13.4043 19.0467 13.279 19.1756 13.1169 19.2101C12.6428 19.311 12.1566 19.3623 11.6641 19.3623C11.1712 19.3623 10.6848 19.3109 10.2103 19.2099C10.0482 19.1754 9.92292 19.0464 9.89321 18.8833L9.59437 17.243C9.51334 16.7987 9.08748 16.5042 8.64319 16.5852C8.5995 16.5932 8.55653 16.6047 8.51478 16.6196L6.94605 17.1805C6.79014 17.2363 6.616 17.1925 6.505 17.0696C5.8486 16.3431 5.35113 15.4858 5.04915 14.5518C4.9982 14.3942 5.04732 14.2215 5.17356 14.1143L6.44502 13.0348C6.78928 12.7425 6.83138 12.2265 6.53906 11.8822C6.51032 11.8483 6.47887 11.8169 6.44503 11.7882L5.17356 10.7087C5.04732 10.6015 4.9982 10.4287 5.04915 10.2712ZM10.0286 12.4115C10.0286 13.3147 10.7608 14.047 11.6641 14.047C12.5673 14.047 13.2995 13.3147 13.2995 12.4115C13.2995 11.5082 12.5673 10.776 11.6641 10.776C10.7608 10.776 10.0286 11.5082 10.0286 12.4115Z" fill="#000"/>
</svg>
